<?xml version="1.0" encoding="utf-8"?>
<!-- Generator: Adobe Illustrator 22.1.0, SVG Export Plug-In . SVG Version: 6.00 Build 0)  -->
<svg version="1.1" id="Layer_1" xmlns:vectornator="http://vectornator.io"
	 xmlns="http://www.w3.org/2000/svg" xmlns:xlink="http://www.w3.org/1999/xlink" x="0px" y="0px" viewBox="0 0 595.3 841.9"
	 style="enable-background:new 0 0 595.3 841.9;" xml:space="preserve">
<style type="text/css">
	.st0{display:none;}
	.st1{fill:#3ECC9E;}
	.st2{fill:#f6bb5d;}
</style>
<g>
	<path class="st1" d="M297.6,569.5c-66.9,0-121-54.1-121-121V176.9c0-15.9-15.9-31.7-31.7-31.7H81.4c-15.9,0-31.7,15.9-31.7,31.7
		v271.6c0,137.3,110.8,248,248,248c34.5,0,67.4-7,97.2-19.7V520.4C372.8,550.1,337.6,569.5,297.6,569.5z"/>
	<path class="st2" d="M545.7,448.5V176.9c0-21.8-15.9-31.7-31.7-31.7h-63.5c-15.9,0-31.7,15.9-31.7,31.7v55
		c-35.8-20-77-31.5-121-31.5c-34.6,0-67.4,7.3-97.2,20.1v156c22-29.8,57.3-49.1,97.2-49.1c66.9,0,121,54.1,121,121V665
		C494.5,622.6,545.7,541.7,545.7,448.5z"/>
</g>
</svg>
