<?xml version="1.0" encoding="utf-8"?>
<!-- Generator: Adobe Illustrator 22.1.0, SVG Export Plug-In . SVG Version: 6.00 Build 0)  -->
<svg version="1.1" id="Layer_1" xmlns="http://www.w3.org/2000/svg" xmlns:xlink="http://www.w3.org/1999/xlink" x="0px" y="0px"
	 viewBox="0 0 300 300" style="enable-background:new 0 0 300 300;" xml:space="preserve">
<style type="text/css">
	.st0{fill:#3ECC9E;}
	.st1{fill:#FFFFFF;}
</style>
<path class="st0" d="M150.8,220.6c-32.1,0-58.1-26-58.1-58.1c0,0,0-0.1,0-0.1V31.9c0-7.6-7.6-15.2-15.2-15.2H46.9
	c-7.6,0-15.2,7.6-15.2,15.2v130.5c0.1,65.9,53.5,119.2,119.4,119.2c16,0,31.7-3.2,46.4-9.5V197C186.6,211.8,169.3,220.6,150.8,220.6
	z"/>
<path class="st1" d="M270,162.4V31.9c0-10.5-7.6-15.2-15.2-15.2h-30.5c-7.6,0-15.2,7.6-15.2,15.2v26.4c-32.2-18-70.9-20.1-104.8-5.5
	v75c19.1-25.8,55.4-31.3,81.3-12.2c14.8,11,23.6,28.3,23.6,46.8v104.1C246.7,245.4,270.1,205.6,270,162.4z"/>
</svg>
